<?xml version="1.0" encoding="UTF-8" standalone="no"?>
<!-- Created with Inkscape (http://www.inkscape.org/) -->

<svg
   width="4096mm"
   height="3957mm"
   viewBox="0 0 4096 3957"
   version="1.1"
   id="svg1"
   inkscape:export-filename="GrapeXagon.svg"
   inkscape:export-xdpi="25.2031"
   inkscape:export-ydpi="25.2031"
   xmlns:inkscape="http://www.inkscape.org/namespaces/inkscape"
   xmlns:sodipodi="http://sodipodi.sourceforge.net/DTD/sodipodi-0.dtd"
   xmlns:xlink="http://www.w3.org/1999/xlink"
   xmlns="http://www.w3.org/2000/svg"
   xmlns:svg="http://www.w3.org/2000/svg">
  <sodipodi:namedview
     id="namedview1"
     pagecolor="#ffffff"
     bordercolor="#000000"
     borderopacity="0.25"
     inkscape:showpageshadow="2"
     inkscape:pageopacity="0.0"
     inkscape:pagecheckerboard="0"
     inkscape:deskcolor="#d1d1d1"
     inkscape:document-units="mm"
     showguides="true"
     inkscape:lockguides="false">
    <inkscape:page
       x="0"
       y="0"
       width="4096"
       height="3957"
       id="page2"
       margin="0"
       bleed="0" />
  </sodipodi:namedview>
  <defs
     id="defs1">
    <linearGradient
       id="linearGradient17"
       inkscape:collect="always">
      <stop
         style="stop-color:#0fff50;stop-opacity:1;"
         offset="0"
         id="stop17" />
      <stop
         style="stop-color:#7f00ff;stop-opacity:1;"
         offset="1"
         id="stop18" />
    </linearGradient>
    <linearGradient
       inkscape:collect="always"
       xlink:href="#linearGradient17"
       id="linearGradient18"
       x1="-221.98053"
       y1="8318.3203"
       x2="10820.388"
       y2="-2724.0479"
       gradientUnits="userSpaceOnUse"
       gradientTransform="matrix(0.37092686,0,0,0.37092686,82.338538,1010.4228)" />
  </defs>
  <g
     inkscape:label="Layer 1"
     inkscape:groupmode="layer"
     id="layer1">
    <path
       id="path16-3-5-8-0-6"
       style="baseline-shift:baseline;display:inline;overflow:visible;opacity:1;vector-effect:none;fill:url(#linearGradient18);fill-opacity:1;stroke-width:0.370927;stroke-linecap:round;stroke-linejoin:round;enable-background:accumulate;stop-color:#000000;stop-opacity:1"
       d="M 1422.5805,0.35243243 A 208.15529,208.15529 0 0 0 1330.6144,27.8814 L 717.34117,381.95497 A 208.15529,208.15529 0 0 0 613.27378,562.20517 V 1150.1854 L 104.06736,1444.1761 A 208.15529,208.15529 0 0 0 1.7920468e-6,1624.4263 v 708.1471 A 208.15529,208.15529 0 0 0 104.06736,2512.8236 l 509.20642,293.9907 v 587.9802 a 208.15529,208.15529 0 0 0 104.06739,180.2502 l 613.27323,354.0736 a 208.15529,208.15529 0 0 0 208.1348,0 l 509.2064,-293.9902 509.2059,293.9902 a 208.15529,208.15529 0 0 0 208.1352,0 l 613.2728,-354.0736 a 208.15529,208.15529 0 0 0 104.0679,-180.2502 v -587.9808 l 509.206,-293.9901 a 208.15529,208.15529 0 0 0 104.0677,-180.2502 V 1624.4263 A 208.15529,208.15529 0 0 0 3991.8434,1444.1766 L 3482.6374,1150.186 V 562.20517 A 208.15529,208.15529 0 0 0 3378.57,381.95546 L 2765.2967,27.8814 A 208.15529,208.15529 0 0 0 2649.1275,0.35243243 208.15529,208.15529 0 0 0 2557.1615,27.8814 L 2047.9551,321.87205 1538.7492,27.8814 A 208.15529,208.15529 0 0 0 1422.5805,0.35243243 Z M 1434.6818,448.46468 1943.5875,742.2807 a 208.13448,208.13448 0 0 0 0,0.002 l 0.2976,0.17156 a 208.13448,208.13448 0 0 0 12.1339,5.98246 208.13448,208.13448 0 0 0 12.1634,5.99743 208.13448,208.13448 0 0 0 13.079,4.45958 208.13448,208.13448 0 0 0 12.7307,4.3185 208.13448,208.13448 0 0 0 13.602,2.72123 208.13448,208.13448 0 0 0 13.1327,2.60702 208.13448,208.13448 0 0 0 13.8475,0.92085 208.13448,208.13448 0 0 0 13.3554,0.86815 208.13448,208.13448 0 0 0 13.8754,-0.89915 208.13448,208.13448 0 0 0 13.327,-0.88262 208.13448,208.13448 0 0 0 13.7023,-2.71812 208.13448,208.13448 0 0 0 13.0346,-2.60444 208.13448,208.13448 0 0 0 13.1095,-4.44562 208.13448,208.13448 0 0 0 12.7049,-4.32678 208.13448,208.13448 0 0 0 12.6315,-6.2279 208.13448,208.13448 0 0 0 11.7044,-5.77059 l 0.2145,-0.1235 a 208.13448,208.13448 0 0 0 0.013,-0.008 L 2661.2294,448.46468 3066.368,682.37144 V 1150.186 l -405.1386,233.9077 -509.2069,-293.9906 a 208.13448,208.13448 0 0 0 -8.9079,-4.3929 208.13448,208.13448 0 0 0 -13.372,-6.5948 208.13448,208.13448 0 0 0 -11.3525,-4.1821 208.13448,208.13448 0 0 0 -13.8614,-4.7056 208.13448,208.13448 0 0 0 -11.953,-2.7574 208.13448,208.13448 0 0 0 -14.1906,-2.8225 208.13448,208.13448 0 0 0 -12.3251,-1.2433 208.13448,208.13448 0 0 0 -10.3221,-1.0407 208.13448,208.13448 0 0 0 -3.7072,0.1214 208.13448,208.13448 0 0 0 -16.2839,0.5333 208.13448,208.13448 0 0 0 -11.9127,0.7808 208.13448,208.13448 0 0 0 -16.779,2.9315 208.13448,208.13448 0 0 0 -10.9825,2.1844 208.13448,208.13448 0 0 0 -17.9169,5.8031 208.13448,208.13448 0 0 0 -8.8964,3.0199 208.13448,208.13448 0 0 0 -25.2817,12.321 208.13448,208.13448 0 0 0 -0.089,0.043 l -613.2733,354.074 v 0 a 208.13448,208.13448 0 0 0 -96.9748,126.3803 208.13448,208.13448 0 0 0 -7.0925,53.8694 v 708.1471 a 208.13448,208.13448 0 0 0 0.3757,5.7204 208.13448,208.13448 0 0 0 1.4086,21.4613 208.13448,208.13448 0 0 0 2.1828,10.9753 208.13448,208.13448 0 0 0 3.1377,15.7491 208.13448,208.13448 0 0 0 3.7677,11.0988 208.13448,208.13448 0 0 0 4.9975,14.6981 208.13448,208.13448 0 0 0 5.4745,11.1014 208.13448,208.13448 0 0 0 6.5845,13.3286 208.13448,208.13448 0 0 0 7.0852,10.6037 208.13448,208.13448 0 0 0 8.0629,12.0435 208.13448,208.13448 0 0 0 8.4897,9.6808 208.13448,208.13448 0 0 0 9.486,10.793 208.13448,208.13448 0 0 0 9.7263,8.5295 208.13448,208.13448 0 0 0 10.7708,9.4204 208.13448,208.13448 0 0 0 10.7665,7.1942 208.13448,208.13448 0 0 0 11.7509,7.8516 l 0.2894,0.1669 612.6925,353.7376 0.2873,0.1659 a 208.13448,208.13448 0 0 0 11.873,5.8538 208.13448,208.13448 0 0 0 12.4351,6.1308 208.13448,208.13448 0 0 0 12.7349,4.3412 208.13448,208.13448 0 0 0 13.079,4.4353 208.13448,208.13448 0 0 0 13.3612,2.6732 208.13448,208.13448 0 0 0 13.3751,2.6535 208.13448,208.13448 0 0 0 13.6965,0.9105 208.13448,208.13448 0 0 0 13.5121,0.8759 208.13448,208.13448 0 0 0 13.649,-0.8847 208.13448,208.13448 0 0 0 13.557,-0.9007 208.13448,208.13448 0 0 0 13.4072,-2.6602 208.13448,208.13448 0 0 0 13.3337,-2.6675 208.13448,208.13448 0 0 0 12.9783,-4.4012 208.13448,208.13448 0 0 0 12.834,-4.3753 208.13448,208.13448 0 0 0 12.4399,-6.1334 208.13448,208.13448 0 0 0 11.8682,-5.8512 l 613.2743,-354.0735 a 208.13448,208.13448 0 0 0 76.1819,-284.3166 208.13448,208.13448 0 0 0 -172.4674,-103.9221 208.13448,208.13448 0 0 0 -111.8497,27.7393 l -509.206,293.99 -405.1391,-233.9077 V 1744.589 l 405.1396,-233.9073 509.2059,293.9902 a 208.15529,208.15529 0 0 0 208.1352,0 l 509.2065,-293.9907 405.1386,233.9073 v 467.8145 l -509.2065,293.9906 a 208.13448,208.13448 0 0 0 -104.0673,180.2498 v 587.9808 l -405.1391,233.9077 -509.2064,-293.9906 a 208.13448,208.13448 0 0 0 -12.0414,-5.9386 208.13448,208.13448 0 0 0 -12.3763,-6.1033 208.13448,208.13448 0 0 0 -79.6497,-15.8432 208.13448,208.13448 0 0 0 -104.0669,27.8851 l -509.2064,293.9906 -405.1391,-233.9077 v -587.9808 a 208.13448,208.13448 0 0 0 -0.3064,-4.6725 208.13448,208.13448 0 0 0 -1.4779,-22.5134 208.13448,208.13448 0 0 0 -2.0206,-10.1558 208.13448,208.13448 0 0 0 -3.2994,-16.5619 208.13448,208.13448 0 0 0 -3.8684,-11.397 208.13448,208.13448 0 0 0 -4.8968,-14.4014 208.13448,208.13448 0 0 0 -5.5468,-11.2482 208.13448,208.13448 0 0 0 -6.5116,-13.1813 208.13448,208.13448 0 0 0 -7.1245,-10.6627 208.13448,208.13448 0 0 0 -8.02359,-11.985 208.13448,208.13448 0 0 0 -8.47943,-9.669 208.13448,208.13448 0 0 0 -9.49636,-10.8048 208.13448,208.13448 0 0 0 -9.61368,-8.4308 208.13448,208.13448 0 0 0 -10.8854,-9.5212 208.13448,208.13448 0 0 0 -10.70866,-7.1555 208.13448,208.13448 0 0 0 -11.80783,-7.8893 l -0.2868,-0.1658 a 208.13448,208.13448 0 0 0 -0.004,0 L 416.26891,2212.4071 v -467.8145 l 508.95325,-293.8444 h 0.004 a 208.13448,208.13448 0 0 0 0.004,0 l 0.24492,-0.1416 a 208.13448,208.13448 0 0 0 11.73858,-7.8433 208.13448,208.13448 0 0 0 10.79497,-7.2128 208.13448,208.13448 0 0 0 10.82027,-9.4675 208.13448,208.13448 0 0 0 9.67362,-8.484 208.13448,208.13448 0 0 0 9.51446,-10.8286 208.13448,208.13448 0 0 0 8.45769,-9.6436 208.13448,208.13448 0 0 0 8.07326,-12.0621 208.13448,208.13448 0 0 0 7.07167,-10.5841 208.13448,208.13448 0 0 0 6.5106,-13.1824 208.13448,208.13448 0 0 0 5.5463,-11.2466 208.13448,208.13448 0 0 0 4.9169,-14.465 208.13448,208.13448 0 0 0 3.8462,-11.3298 208.13448,208.13448 0 0 0 3.392,-17.0301 208.13448,208.13448 0 0 0 1.9264,-9.685 208.13448,208.13448 0 0 0 1.4583,-22.2193 208.13448,208.13448 0 0 0 0.3261,-4.9655 V 682.37144 Z"
       inkscape:label="G" />
  </g>
</svg>
