<?xml version="1.0" encoding="UTF-8" standalone="no"?>
<!-- Created with Inkscape (http://www.inkscape.org/) -->

<svg
   width="4096mm"
   height="3957mm"
   viewBox="0 0 4096 3957"
   version="1.1"
   id="svg1"
   xmlns:inkscape="http://www.inkscape.org/namespaces/inkscape"
   xmlns:sodipodi="http://sodipodi.sourceforge.net/DTD/sodipodi-0.dtd"
   xmlns:xlink="http://www.w3.org/1999/xlink"
   xmlns="http://www.w3.org/2000/svg"
   xmlns:svg="http://www.w3.org/2000/svg">
  <sodipodi:namedview
     id="namedview1"
     pagecolor="#ffffff"
     bordercolor="#000000"
     borderopacity="0.25"
     inkscape:showpageshadow="2"
     inkscape:pageopacity="0.0"
     inkscape:pagecheckerboard="0"
     inkscape:deskcolor="#d1d1d1"
     inkscape:document-units="mm"
     showguides="true"
     inkscape:lockguides="false">
    <sodipodi:guide
       position="4649.1533,391.64434"
       orientation="1,0"
       id="guide28"
       inkscape:locked="false" />
    <inkscape:page
       x="0"
       y="0"
       width="4096"
       height="3957"
       id="page2"
       margin="0"
       bleed="0" />
  </sodipodi:namedview>
  <defs
     id="defs1">
    <linearGradient
       id="linearGradient28"
       inkscape:collect="always">
      <stop
         style="stop-color:#ffc000;stop-opacity:1;"
         offset="0"
         id="stop28" />
      <stop
         style="stop-color:#ec5800;stop-opacity:1;"
         offset="1"
         id="stop29" />
    </linearGradient>
    <linearGradient
       inkscape:collect="always"
       xlink:href="#linearGradient28"
       id="linearGradient29"
       x1="0"
       y1="4096"
       x2="4096"
       y2="0"
       gradientUnits="userSpaceOnUse" />
  </defs>
  <g
     inkscape:label="Layer 1"
     inkscape:groupmode="layer"
     id="layer1">
    <path
       id="path16-4-8-7-7"
       style="baseline-shift:baseline;display:inline;overflow:visible;opacity:1;vector-effect:none;fill:url(#linearGradient29);fill-opacity:1;stroke-linecap:round;stroke-linejoin:round;enable-background:accumulate;stop-color:#000000;stop-opacity:1"
       d="M 821.42583,0 A 208.15982,208.15982 0 0 0 717.3557,27.883053 L 104.07013,381.96273 A 208.15982,208.15982 0 0 0 0,562.21685 v 708.16405 a 208.15982,208.15982 0 0 0 104.07013,180.252 l 509.21698,293.9976 v 467.8241 l -509.21853,293.9965 a 208.13901,208.13901 0 0 0 -29.719113,20.8107 208.13901,208.13901 0 0 0 -46.464864,55.3749 208.13901,208.13901 0 0 0 -15.331881,32.8807 A 208.13901,208.13901 0 0 0 0,2686.7053 v 708.164 a 208.15982,208.15982 0 0 0 104.06858,180.2536 l 613.28712,354.0802 a 208.15982,208.15982 0 0 0 208.14026,0 l 613.28714,-354.0802 a 208.15982,208.15982 0 0 0 104.0686,-180.2536 v -587.9941 l 405.1484,-233.9118 405.1484,233.9118 v 587.9941 a 208.15982,208.15982 0 0 0 104.0685,180.2536 l 613.2872,354.0802 a 208.15982,208.15982 0 0 0 208.1382,0 l 613.2871,-354.0802 a 208.15982,208.15982 0 0 0 104.0706,-180.2536 v -708.164 A 208.13901,208.13901 0 0 0 3991.9295,2506.4511 L 3482.713,2212.4562 v -467.8268 l 509.2165,-293.9965 a 208.15982,208.15982 0 0 0 104.0706,-180.252 V 562.21685 A 208.13901,208.13901 0 0 0 3991.9295,381.96273 L 3378.6424,27.883053 A 208.15982,208.15982 0 0 0 3274.5743,0 208.15982,208.15982 0 0 0 3170.5042,27.883053 L 2557.217,381.96273 a 208.15982,208.15982 0 0 0 -104.0685,180.25412 v 587.99405 l -405.1484,233.9113 -405.1484,-233.9113 V 562.21685 A 208.13901,208.13901 0 0 0 1538.7831,381.96273 L 925.49596,27.883053 A 208.15982,208.15982 0 0 0 821.42583,0 Z m 0,448.47443 405.14837,233.91234 v 587.99413 a 208.13901,208.13901 0 0 0 0.848,12.9046 208.13901,208.13901 0 0 0 0.9287,14.1402 208.13901,208.13901 0 0 0 2.5807,13.0685 208.13901,208.13901 0 0 0 2.7285,13.6834 208.13901,208.13901 0 0 0 4.2917,12.6917 208.13901,208.13901 0 0 0 4.4726,13.1434 208.13901,208.13901 0 0 0 5.8968,11.9863 208.13901,208.13901 0 0 0 6.1692,12.4758 208.13901,208.13901 0 0 0 7.5023,11.2463 208.13901,208.13901 0 0 0 7.6585,11.4272 208.13901,208.13901 0 0 0 8.9343,10.1989 208.13901,208.13901 0 0 0 9.0641,10.3001 208.13901,208.13901 0 0 0 10.2236,8.9721 208.13901,208.13901 0 0 0 10.2971,8.9943 208.13901,208.13901 0 0 0 11.3765,7.6031 208.13901,208.13901 0 0 0 11.096,7.4161 l 0.4418,0.2548 612.5538,353.6585 a 208.13901,208.13901 0 0 0 0.01,0 l 0.2811,0.1622 a 208.13901,208.13901 0 0 0 11.8613,5.8478 208.13901,208.13901 0 0 0 12.4484,6.1376 208.13901,208.13901 0 0 0 12.7956,4.362 208.13901,208.13901 0 0 0 13.0188,4.4152 208.13901,208.13901 0 0 0 13.269,2.6546 208.13901,208.13901 0 0 0 13.471,2.6722 208.13901,208.13901 0 0 0 13.5407,0.8997 208.13901,208.13901 0 0 0 13.6654,0.8862 208.13901,208.13901 0 0 0 13.6653,-0.8862 208.13901,208.13901 0 0 0 13.5407,-0.8997 208.13901,208.13901 0 0 0 13.4711,-2.6722 208.13901,208.13901 0 0 0 13.2689,-2.6546 208.13901,208.13901 0 0 0 13.0189,-4.4152 208.13901,208.13901 0 0 0 12.7956,-4.362 208.13901,208.13901 0 0 0 12.4483,-6.1376 208.13901,208.13901 0 0 0 11.8613,-5.8478 l 612.8442,-353.8259 a 208.13901,208.13901 0 0 0 0,-10e-4 l 0.4418,-0.2548 a 208.13901,208.13901 0 0 0 11.1461,-7.4497 208.13901,208.13901 0 0 0 11.3239,-7.568 208.13901,208.13901 0 0 0 10.3538,-9.0434 208.13901,208.13901 0 0 0 10.1694,-8.9245 208.13901,208.13901 0 0 0 9.0641,-10.3001 208.13901,208.13901 0 0 0 8.9343,-10.1989 208.13901,208.13901 0 0 0 7.6585,-11.4272 208.13901,208.13901 0 0 0 7.5024,-11.2463 208.13901,208.13901 0 0 0 6.1185,-12.374 208.13901,208.13901 0 0 0 5.9484,-12.0917 208.13901,208.13901 0 0 0 4.4313,-13.0204 208.13901,208.13901 0 0 0 4.332,-12.8111 208.13901,208.13901 0 0 0 2.7285,-13.6834 208.13901,208.13901 0 0 0 2.5808,-13.0685 208.13901,208.13901 0 0 0 0.9286,-14.1402 208.13901,208.13901 0 0 0 0.848,-12.9046 V 682.38677 l 405.1484,-233.91234 405.1484,233.91234 v 467.82413 l -509.2185,293.996 a 208.13901,208.13901 0 0 0 -4.2566,2.8453 208.13901,208.13901 0 0 0 -18.4051,12.3032 208.13901,208.13901 0 0 0 -8.585,7.5287 208.13901,208.13901 0 0 0 -11.9094,10.4578 208.13901,208.13901 0 0 0 -8.0429,9.1715 208.13901,208.13901 0 0 0 -9.9265,11.343 208.13901,208.13901 0 0 0 -6.9179,10.3533 208.13901,208.13901 0 0 0 -8.214,12.3311 208.13901,208.13901 0 0 0 -5.6229,11.4024 208.13901,208.13901 0 0 0 -6.4126,13.0653 208.13901,208.13901 0 0 0 -4.1403,12.1972 208.13901,208.13901 0 0 0 -4.593,13.6338 208.13901,208.13901 0 0 0 -2.5445,12.793 208.13901,208.13901 0 0 0 -2.7363,13.9563 208.13901,208.13901 0 0 0 -0.8594,13.1072 208.13901,208.13901 0 0 0 -0.9022,13.7651 v 708.164 a 208.13901,208.13901 0 0 0 0.9033,13.781 208.13901,208.13901 0 0 0 0.8583,13.0969 208.13901,208.13901 0 0 0 2.7353,13.9449 208.13901,208.13901 0 0 0 2.5466,12.8033 208.13901,208.13901 0 0 0 4.5821,13.5997 208.13901,208.13901 0 0 0 4.1517,12.2303 208.13901,208.13901 0 0 0 6.4378,13.116 208.13901,208.13901 0 0 0 5.5966,11.3486 208.13901,208.13901 0 0 0 8.1597,12.2505 208.13901,208.13901 0 0 0 6.9748,10.4381 208.13901,208.13901 0 0 0 9.7699,11.1631 208.13901,208.13901 0 0 0 8.1975,9.3478 208.13901,208.13901 0 0 0 12.2772,10.7802 208.13901,208.13901 0 0 0 8.2135,7.2027 208.13901,208.13901 0 0 0 19.7053,13.1728 208.13901,208.13901 0 0 0 2.959,1.9777 l 509.2185,293.9965 v 467.8241 l -405.1484,233.9119 -405.1484,-233.9119 v -587.994 a 208.13901,208.13901 0 0 0 -0.9033,-13.7821 208.13901,208.13901 0 0 0 -0.8584,-13.0954 208.13901,208.13901 0 0 0 -2.7388,-13.9629 208.13901,208.13901 0 0 0 -2.543,-12.7863 208.13901,208.13901 0 0 0 -4.5465,-13.4943 208.13901,208.13901 0 0 0 -4.1889,-12.3393 208.13901,208.13901 0 0 0 -6.3252,-12.8855 208.13901,208.13901 0 0 0 -5.7097,-11.5786 208.13901,208.13901 0 0 0 -8.1716,-12.267 208.13901,208.13901 0 0 0 -6.9593,-10.4159 208.13901,208.13901 0 0 0 -10.1446,-11.5915 208.13901,208.13901 0 0 0 -7.8207,-8.9178 208.13901,208.13901 0 0 0 -12.1129,-10.6361 208.13901,208.13901 0 0 0 -8.3861,-7.3541 208.13901,208.13901 0 0 0 -18.1632,-12.1419 208.13901,208.13901 0 0 0 -4.4964,-3.0055 l -613.2871,-354.0802 a 208.13901,208.13901 0 0 0 -13.518,-6.6667 208.13901,208.13901 0 0 0 -10.7276,-5.2901 208.13901,208.13901 0 0 0 -15.3432,-5.2354 208.13901,208.13901 0 0 0 -10.4852,-3.5595 208.13901,208.13901 0 0 0 -17.7684,-3.5517 208.13901,208.13901 0 0 0 -8.9963,-1.7895 208.13901,208.13901 0 0 0 -27.2314,-1.7937 208.13901,208.13901 0 0 0 -27.2315,1.7937 208.13901,208.13901 0 0 0 -8.9612,1.7823 208.13901,208.13901 0 0 0 -17.8046,3.5595 208.13901,208.13901 0 0 0 -10.4241,3.5388 208.13901,208.13901 0 0 0 -15.4032,5.2555 208.13901,208.13901 0 0 0 -10.7678,5.3102 208.13901,208.13901 0 0 0 -13.4778,6.6466 l -613.2871,354.0802 a 208.13901,208.13901 0 0 0 -4.2545,2.8443 208.13901,208.13901 0 0 0 -18.4072,12.3042 208.13901,208.13901 0 0 0 -8.309,7.2869 208.13901,208.13901 0 0 0 -12.1863,10.7006 208.13901,208.13901 0 0 0 -7.9639,9.0806 208.13901,208.13901 0 0 0 -10.003,11.4303 208.13901,208.13901 0 0 0 -6.8833,10.3012 208.13901,208.13901 0 0 0 -8.2496,12.3848 208.13901,208.13901 0 0 0 -5.5966,11.3486 208.13901,208.13901 0 0 0 -6.4378,13.116 208.13901,208.13901 0 0 0 -4.1517,12.2303 208.13901,208.13901 0 0 0 -4.5822,13.5997 208.13901,208.13901 0 0 0 -2.543,12.7863 208.13901,208.13901 0 0 0 -2.7388,13.9629 208.13901,208.13901 0 0 0 -0.8584,13.0954 208.13901,208.13901 0 0 0 -0.9033,13.7821 v 0.6836 587.3104 l -405.14837,233.9119 -405.1484,-233.9119 v -467.8241 l 508.7736,-293.7413 0.44493,-0.2568 a 208.13901,208.13901 0 0 0 11.14351,-7.4476 208.13901,208.13901 0 0 0 11.32747,-7.5706 208.13901,208.13901 0 0 0 10.38335,-9.0697 208.13901,208.13901 0 0 0 10.13633,-8.8951 208.13901,208.13901 0 0 0 9.13743,-10.3833 208.13901,208.13901 0 0 0 8.86251,-10.1167 208.13901,208.13901 0 0 0 7.71425,-11.5115 208.13901,208.13901 0 0 0 7.44609,-11.1616 208.13901,208.13901 0 0 0 6.1939,-12.5253 208.13901,208.13901 0 0 0 5.873,-11.9378 208.13901,208.13901 0 0 0 4.5424,-13.348 208.13901,208.13901 0 0 0 4.2209,-12.4819 208.13901,208.13901 0 0 0 2.7549,-13.8157 208.13901,208.13901 0 0 0 2.5559,-12.9439 208.13901,208.13901 0 0 0 0.923,-14.0509 208.13901,208.13901 0 0 0 0.8536,-12.9924 v -0.3545 -707.8095 a 208.13901,208.13901 0 0 0 -0.9007,-13.7449 208.13901,208.13901 0 0 0 -0.8609,-13.129 208.13901,208.13901 0 0 0 -2.7451,-14.0001 208.13901,208.13901 0 0 0 -2.5352,-12.745 208.13901,208.13901 0 0 0 -4.6039,-13.6653 208.13901,208.13901 0 0 0 -4.131,-12.1698 208.13901,208.13901 0 0 0 -6.3588,-12.9558 208.13901,208.13901 0 0 0 -5.6771,-11.5125 208.13901,208.13901 0 0 0 -8.10237,-12.1641 208.13901,208.13901 0 0 0 -7.02955,-10.5203 208.13901,208.13901 0 0 0 -9.94771,-11.3673 208.13901,208.13901 0 0 0 -8.01812,-9.1431 208.13901,208.13901 0 0 0 -12.10572,-10.6298 208.13901,208.13901 0 0 0 -8.39122,-7.3587 208.13901,208.13901 0 0 0 -18.40404,-12.3026 208.13901,208.13901 0 0 0 -4.25711,-2.8459 L 416.27743,1150.2109 V 682.38677 Z" />
  </g>
</svg>
